<svg width="1200" height="260" viewBox="0 0 1200 260" fill="none" xmlns="http://www.w3.org/2000/svg">
  <defs>
    <linearGradient id="bg" x1="0" y1="0" x2="1200" y2="260" gradientUnits="userSpaceOnUse">
      <stop stop-color="#0A1F2A"/>
      <stop offset="1" stop-color="#123847"/>
    </linearGradient>
    <linearGradient id="accent" x1="110" y1="62" x2="230" y2="182" gradientUnits="userSpaceOnUse">
      <stop stop-color="#FFB703"/>
      <stop offset="1" stop-color="#FB8500"/>
    </linearGradient>
  </defs>
  <rect width="1200" height="260" rx="24" fill="url(#bg)"/>
  <circle cx="1048" cy="58" r="84" fill="#1F5364" fill-opacity="0.25"/>
  <circle cx="1120" cy="218" r="66" fill="#0C2A36" fill-opacity="0.55"/>
  <circle cx="170" cy="122" r="58" fill="url(#accent)"/>
  <path d="M170 78C145.699 78 126 97.6995 126 122C126 146.301 145.699 166 170 166C194.301 166 214 146.301 214 122C214 97.6995 194.301 78 170 78ZM170 97.2632C183.663 97.2632 194.737 108.337 194.737 122C194.737 135.663 183.663 146.737 170 146.737C156.337 146.737 145.263 135.663 145.263 122C145.263 108.337 156.337 97.2632 170 97.2632ZM170 106.895C161.712 106.895 154.895 113.712 154.895 122C154.895 130.288 161.712 137.105 170 137.105C178.288 137.105 185.105 130.288 185.105 122C185.105 113.712 178.288 106.895 170 106.895Z" fill="#0D1B1E"/>
  <text x="270" y="112" fill="#F4FBF9" font-family="'Segoe UI', sans-serif" font-size="56" font-weight="800">IFoundYou</text>
  <text x="272" y="152" fill="#C7E6E1" font-family="'Segoe UI', sans-serif" font-size="24">Cross-platform host inspection for Windows and Linux</text>
  <rect x="272" y="178" width="124" height="30" rx="15" fill="#184B5B"/>
  <rect x="408" y="178" width="90" height="30" rx="15" fill="#184B5B"/>
  <rect x="510" y="178" width="88" height="30" rx="15" fill="#184B5B"/>
  <rect x="610" y="178" width="94" height="30" rx="15" fill="#184B5B"/>
  <text x="298" y="198" fill="#DDF6F2" font-family="'Segoe UI', sans-serif" font-size="16" font-weight="700">DNS</text>
  <text x="435" y="198" fill="#DDF6F2" font-family="'Segoe UI', sans-serif" font-size="16" font-weight="700">Geo</text>
  <text x="537" y="198" fill="#DDF6F2" font-family="'Segoe UI', sans-serif" font-size="16" font-weight="700">TLS</text>
  <text x="635" y="198" fill="#DDF6F2" font-family="'Segoe UI', sans-serif" font-size="16" font-weight="700">JSON</text>
  <rect x="874" y="58" width="238" height="126" rx="18" fill="#09141A" stroke="#315C68"/>
  <text x="898" y="95" fill="#8BE9D0" font-family="'Cascadia Code', monospace" font-size="18">ifoundyou github.com</text>
  <text x="898" y="125" fill="#B8D8E1" font-family="'Cascadia Code', monospace" font-size="15">IP      4.228.31.150</text>
  <text x="898" y="149" fill="#B8D8E1" font-family="'Cascadia Code', monospace" font-size="15">Country Brazil</text>
  <text x="898" y="173" fill="#B8D8E1" font-family="'Cascadia Code', monospace" font-size="15">TLS     github.com</text>
</svg>
